<?xml version="1.0" encoding="UTF-8"?> <svg xmlns="http://www.w3.org/2000/svg" id="Capa_1" viewBox="0 0 500 500"><defs><style>.cls-1{fill:#595757;}.cls-1,.cls-2,.cls-3,.cls-4{stroke-width:0px;}.cls-2{fill:#29265b;}.cls-3{fill:#de501b;}.cls-4{fill:#fff;}</style></defs><path class="cls-2" d="M210.67,304.37c6.6-.02,9.29,2.44,9.31,8.83l.32,93.19c.02,5.77-2.86,9.08-9.25,9.1h-3.71c-5.98.03-8.88-3.26-8.9-9.03l-.17-49.9-24.98,51.63c-2.05,4.75-5.54,7.44-10.7,7.46h-2.68c-4.74.03-8.46-2.85-10.54-7.79l-24.92-50.84.17,49.69c.02,5.77-2.86,9.08-9.25,9.1h-3.71c-5.98.03-8.88-3.26-8.9-9.03l-.32-93.19c-.02-6.19,2.86-8.88,8.84-8.9l8.45-.03c3.51-.01,7.22,1.62,9.72,7.18l31.78,68.14,31.31-68.56c2.04-5.57,5.54-7.03,9.67-7.04l8.45-.03Z"></path><path class="cls-2" d="M312.39,354.53c9.29,3.89,15.1,13.97,15.14,26.55-.34,22.06-13.49,34.07-40.71,34.16l-48.87.17c-5.98.02-8.88-3.47-8.9-9.25l-.32-92.99c-.02-6.19,2.86-8.88,8.84-8.9l45.57-.16c26.6-.3,39.21,9.56,39.28,30.59.03,9.07-4.48,16.92-10.03,19.83M250.63,324.02l.08,24.33,32.58-.11c10.93-.04,16.89-5.01,16.86-13.46-.03-8.45-6.43-10.91-16.94-10.87l-32.58.11ZM305.26,380.54c-.03-8.45-5.62-14.62-16.75-14.58l-37.53.13.1,29.69,35.67-.12c11.34-.04,18.54-4.81,18.5-15.12"></path><path class="cls-2" d="M428.73,342.17l-10.1.04c-5.4-12.35-12.85-19.75-29.35-19.69-21.44.07-31.92,11.45-31.83,36.6.09,25.57,11.06,37.9,32.09,37.83,15.46-.05,23.89-7.51,29-19.89l23.92-.08c-6.72,24.56-20.28,39.66-52.85,39.77-33.61.12-54.69-14.45-54.84-57.34-.15-43.3,19.8-57.39,54.44-57.51,26.39-.09,41.27,9.14,48.96,27.25,5.61,13.38-7.38,13.02-9.44,13.02"></path><rect class="cls-1" x="59.82" y="304.8" width="37.81" height="111.1" transform="translate(-1.24 .27) rotate(-.2)"></rect><path class="cls-4" d="M64.5,393.88c1.63.09,3.45.17,6.2.16l13.09-.05c5.17-.02,8.34,1,10.3,3.18,2.06,2.18,2.72,5.35,2.73,8.19,0,2.7-.63,5.68-1.84,7.5l-3.12-1.01c.93-1.49,1.76-3.83,1.75-6.62-.01-4.19-2.21-7.26-7.9-7.24h-2.51s0,.1,0,.1c2.1,1.25,3.79,3.67,3.8,7.16.02,5.59-4.72,9.61-10.96,9.63-7.64.03-11.99-4.94-12-10.11-.01-3.91,2.03-6.06,3.89-7.05v-.09s-3.4-.17-3.4-.17v-3.59ZM73.41,398.08c-.7,0-1.3.05-1.86.24-2.37.75-4.32,2.76-4.31,5.74.01,3.91,3.33,6.7,8.55,6.68,4.42-.01,8.1-2.26,8.08-6.69,0-2.52-1.6-4.79-4.21-5.67-.7-.23-1.49-.32-2.19-.32h-4.05Z"></path><path class="cls-4" d="M71.51,389.15c-2.65,0-4.94.06-7.03.21v-3.59s4.41-.16,4.41-.16v-.19c-3.03-1.01-4.95-3.48-4.96-6.22,0-.47.04-.79.14-1.16h3.87c-.09.41-.14.83-.13,1.38,0,2.89,2.21,4.93,5.28,5.48.56.09,1.21.18,1.91.18l12.02-.04v4.05s-15.5.05-15.5.05Z"></path><path class="cls-4" d="M80.76,356.66c2.33,0,4.38-.06,6.15-.21v3.63s-3.67.25-3.67.25v.09c1.82,1.06,4.2,3.43,4.22,7.44.01,3.54-1.93,7.78-9.85,7.81l-13.18.05v-4.1s12.47-.04,12.47-.04c4.28-.01,7.17-1.33,7.16-5.05,0-2.75-1.93-4.65-3.74-5.39-.61-.23-1.35-.37-2.1-.37l-13.83.05v-4.1s16.38-.06,16.38-.06Z"></path><path class="cls-4" d="M71.71,351.52c-2.89,0-5.22.11-7.36.21v-3.68s3.85-.2,3.85-.2v-.09c-2.75-1.67-4.39-4.32-4.41-8-.02-5.45,4.58-9.56,11.42-9.59,8.1-.03,12.13,4.89,12.14,10.2.01,2.98-1.28,5.59-3.52,6.95v.09s12.25-.04,12.25-.04v4.05s-24.39.08-24.39.08ZM77.7,347.45c.61,0,1.16-.1,1.68-.19,2.84-.75,4.79-3.23,4.78-6.16-.01-4.33-3.56-6.83-8.73-6.82-4.52.02-8.37,2.4-8.36,6.74,0,2.79,2.02,5.4,5.1,6.18.51.14,1.12.28,1.68.27h3.87Z"></path><path class="cls-4" d="M75.28,306.24c8.34-.03,11.99,5.73,12.01,11.18.02,6.1-4.43,10.82-11.56,10.84-7.54.03-11.99-4.9-12.01-11.14-.02-6.47,4.67-10.87,11.56-10.89M75.57,324.12c4.94-.02,8.65-2.87,8.64-6.88-.01-3.91-3.7-6.83-8.78-6.82-3.82.01-8.66,1.94-8.64,6.78.02,4.84,4.5,6.92,8.78,6.91"></path><path class="cls-2" d="M118.31,94.4c-49.43,19.64-73.58,75.63-53.94,125.07,19.11,48.09,72.62,72.23,121.04,55.42-1.47-1.04-19.58-13.76-25.27-12.94-24.89,3.58-48.22-6.58-56.54-26.56-10.3-24.76,6.33-55.21,37.12-68.03,30.8-12.82,64.12-3.14,74.42,21.61,8.7,20.92-1.83,45.91-23.89,60.89-3.88,2.63-4.77,23-5.63,24.94,1.28-.44,2.56-.9,3.82-1.4,49.43-19.64,73.58-75.65,53.94-125.07-19.64-49.43-75.64-73.58-125.07-53.93"></path><path class="cls-3" d="M359.12,87.55c43.31,14.5,66.67,61.36,52.18,104.67-14.1,42.14-58.84,65.38-101.14,53.26,1.21-.96,16.13-12.73,21.05-12.29,21.52,1.89,41.04-7.93,47.22-25.46,7.65-21.71-8.04-47.03-35.06-56.55-27.02-9.53-55.12.35-62.78,22.06-6.47,18.34,3.73,39.28,23.38,51.07,3.44,2.08,5.18,19.5,6.01,21.12-1.12-.33-2.24-.65-3.35-1.02-43.32-14.5-66.67-61.36-52.18-104.67,14.5-43.31,61.36-66.67,104.67-52.18"></path></svg> 
