<?xml version="1.0" encoding="UTF-8"?>
<svg id="Capa_1" data-name="Capa 1" xmlns="http://www.w3.org/2000/svg" viewBox="0 0 450 200">
  <defs>
    <style>
      .cls-1 {
        fill: #cb0017;
      }

      .cls-2 {
        fill-rule: evenodd;
      }
    </style>
  </defs>
  <path d="m92.3,91h-17.8v46c0,12.5-5,22.1-19.9,22.1-9.7,0-15.5-5.2-15.5-19.4v-48.7h-17.8v50.4c0,21.1,9.1,31.8,30.2,31.8,8.9,0,18.6-5.3,23-13.5h.3v11.3h17.5v-80h0Z"/>
  <polygon class="cls-1" points="31.6 68.8 82 68.8 82 77.7 31.6 77.7 31.6 68.8"/>
  <path class="cls-1" d="m50.7,30.9c0-3.5,2.8-6.3,6.3-6.3s6.3,2.8,6.3,6.3-2.8,6.3-6.3,6.3c-3.5,0-6.3-2.8-6.3-6.3h0Z"/>
  <path class="cls-1" d="m21.3,52.5c0-5.7,4.6-10.4,10.4-10.4s10.4,4.6,10.4,10.4-4.6,10.4-10.4,10.4-10.4-4.7-10.4-10.4h0Z"/>
  <path class="cls-1" d="m46.5,52.5c0-5.7,4.6-10.4,10.4-10.4s10.4,4.6,10.4,10.4-4.6,10.4-10.4,10.4-10.4-4.7-10.4-10.4h0Z"/>
  <path class="cls-1" d="m71.6,52.5c0-5.7,4.6-10.4,10.4-10.4s10.4,4.6,10.4,10.4-4.6,10.4-10.4,10.4-10.4-4.7-10.4-10.4h0Z"/>
  <path d="m172.2,91h-4.4v18c0,2.9-.4,5.2-2,6.8-1.4,1.4-3.9,2.5-7.3,2.5-2.7,0-4.9-.9-6.7-2.6-1.4-1.4-1.9-2.9-1.9-6.3v-18.4h-4.4v19.2c0,8.4,6.3,12.1,12.9,12.1,9.2,0,13.7-5,13.7-12.6v-18.7h.1Z"/>
  <path class="cls-2" d="m205.7,101.6h-4v20.4h4v-20.4h0Zm.4-6.2c0-1.3-1.1-2.4-2.4-2.4s-2.4,1.1-2.4,2.4,1.1,2.4,2.4,2.4,2.4-1.1,2.4-2.4h0Z"/>
  <path class="cls-2" d="m249.4,116c-2.4,1.5-4.7,2.4-7.1,2.4-3.9,0-6.2-2.1-6.8-6.1h14.3c0-7.5-3.4-11.2-8.8-11.2s-9.5,4.2-9.5,10.3c0,5.6,3.5,10.8,9.9,10.8,3.4,0,5.7-.8,8.1-2.4v-3.8h-.1Zm-13.8-6.3c.5-3.2,2.4-5,5.5-5,2.9,0,4.6,1.9,4.8,5h-10.3Z"/>
  <path class="cls-2" d="m294.8,101.6h-4v20.4h4v-20.4h0Zm.5-6.2c0-1.3-1.1-2.4-2.4-2.4s-2.4,1.1-2.4,2.4,1.1,2.4,2.4,2.4,2.4-1.1,2.4-2.4h0Z"/>
  <path class="cls-2" d="m318.3,91h-4v11c-1.6-.6-2.9-.8-4.3-.8-5.9,0-10.2,4.2-10.2,10.1,0,6.5,3.8,10.7,9.9,10.7h8.6v-31h0Zm-4,27.5h-4.1c-4.7,0-6.2-2.9-6.2-6.7,0-4.3,2.6-7.1,6.5-7.1,1.4,0,2.4.2,3.8.8v13h0Z"/>
  <path class="cls-2" d="m341,118.3c-.9.7-1.7,1.1-2.1,1.1-.5,0-.8-.3-.8-1v-10.5c0-4.6-3.3-6.7-7.4-6.7-2.9,0-5.2.9-6.8,2.8v4.4c2-2.3,4.2-3.4,6.4-3.4,2.4,0,3.7,1,3.7,3.6v1.1l-3.6,1.3c-3.3,1.2-6.9,2.4-6.9,6.4,0,2.6,2,5,5,5,1.9,0,3.7-.7,5.5-2.1.4,1.5,1.3,2.1,3.1,2.1,1.3,0,2-.4,3.9-1.6v-2.5h0Zm-6.9-.5c-1.1,1-2.3,1.7-3.5,1.7-1.7,0-2.9-1.2-2.9-2.9,0-2.4,3-3.6,6.4-4.8v6h0Z"/>
  <path class="cls-2" d="m361.6,91h-4v11c-1.6-.6-2.9-.8-4.3-.8-5.9,0-10.2,4.2-10.2,10.1,0,6.5,3.8,10.7,9.9,10.7h8.6v-31h0Zm-4,27.5h-4.1c-4.7,0-6.2-2.9-6.2-6.7,0-4.3,2.6-7.1,6.5-7.1,1.4,0,2.4.2,3.8.8v13h0Z"/>
  <path d="m285,102.8c-2.1-1.1-4.1-1.7-6-1.7-4.1,0-6.7,2.1-6.7,5.5,0,5.5,9.5,7,9.5,9.8,0,1.4-1.4,2.2-3,2.3-1.6,0-4-.9-6.7-2.7v4.4c2.6,1.4,4.6,1.9,7.1,1.9,3.9,0,6.7-2.4,6.7-6,0-2.1-1.2-3.5-4.6-5.7-3.6-2.1-4.9-3.2-4.9-4.1,0-1.1,1-1.9,2.7-1.9,1.5,0,3.6.6,5.9,2.1v-3.9h0Z"/>
  <path d="m254.6,101.6v20.4h4v-10.7c0-3.5,2.2-6.3,4.9-6.3,1,0,2.5.8,3.8,2l2.1-3.5c-1.7-1.6-3.2-2.4-4.9-2.4-1.9,0-3.9,1.5-5.9,5.1h-.1v-4.7h-3.9v.1Z"/>
  <polygon points="219.1 122.3 220.5 122.3 229.4 101.6 225.1 101.6 219.8 114.1 214.3 101.6 209.9 101.6 219.1 122.3"/>
  <path d="m182.6,101.6h-4v20.4h4v-14.6c1.9-2.1,3.3-2.9,5.1-2.9,2.5,0,4,2,4,4.9v12.6h4v-12.6c0-5.6-3.1-8.2-6.9-8.2-2.3,0-4.5,1.1-6.1,3.1h-.1v-2.7h0Z"/>
  <path class="cls-2" d="m145.7,140v30.9h4.4v-13.4h1.9c2.3,0,4.1.7,8.2,7.1l4.1,6.3h5.3c-2.1-2.9-2.9-4-4.2-6.1-2.4-3.9-4.1-6.7-6.9-8.6,3.3-1.3,5.2-4,5.2-7.6,0-5.4-3.9-8.7-10.2-8.7h-7.8v.1Zm4.4,3.8h2.9c4.3,0,6,1.8,6.1,4.7,0,2.6-1.3,5-6.1,5h-2.9v-9.7h0Z"/>
  <path class="cls-2" d="m189,165c-2.4,1.5-4.7,2.4-7.1,2.4-3.9,0-6.2-2.1-6.8-6.1h14.3c0-7.5-3.4-11.2-8.8-11.2s-9.5,4.2-9.5,10.3c0,5.6,3.5,10.8,9.9,10.8,3.4,0,5.7-.8,8.1-2.4v-3.8h-.1Zm-13.8-6.3c.5-3.2,2.4-5,5.5-5,2.9,0,4.6,2,4.8,5h-10.3Z"/>
  <path class="cls-2" d="m279.4,167.3c-.9.7-1.7,1.1-2.1,1.1-.5,0-.8-.3-.8-1v-10.5c0-4.6-3.3-6.7-7.4-6.7-2.9,0-5.2.9-6.8,2.8v4.4c1.9-2.3,4.2-3.4,6.4-3.4,2.5,0,3.7,1,3.7,3.6v1.1l-3.6,1.3c-3.3,1.2-6.9,2.4-6.9,6.4,0,2.6,2,5,5,5,1.9,0,3.7-.7,5.5-2.1.4,1.5,1.3,2.1,3.1,2.1,1.3,0,2-.4,3.9-1.6v-2.5h0Zm-6.9-.5c-1.1,1-2.3,1.7-3.5,1.7-1.7,0-2.9-1.2-2.9-2.9,0-2.4,3-3.6,6.4-4.8v6h0Z"/>
  <path d="m344.4,142.1c-4.2-1.8-7.4-2.5-10.6-2.5-9.8,0-17,6.9-17,16.3,0,6.5,5.1,15.4,16.7,15.4,4.9,0,8.2-1.1,11.2-2.7v-4.9c-3.5,2.3-7.3,3.5-10.8,3.5-7.4,0-12.5-4.8-12.5-11.7s5.3-11.8,12.3-11.8c3.6,0,6.8,1,10.7,3.2v-4.8h0Z"/>
  <polygon points="391.6 140 387.6 140 387.6 170.9 391.6 170.9 391.6 140"/>
  <path class="cls-2" d="m405.5,150.1c-6.1,0-10.8,4.5-10.8,10.4,0,6.3,4.5,10.8,10.8,10.8s11-4.4,11-10.8c.1-6-4.6-10.4-11-10.4h0Zm0,3.7c4,0,6.9,2.9,6.9,6.8,0,4.4-2.7,7.1-6.9,7.1-3.9,0-6.6-2.9-6.6-7.2,0-3.9,2.8-6.7,6.6-6.7h0Z"/>
  <path d="m431.6,151.8c-2.1-1.1-4.1-1.7-6-1.7-4.1,0-6.7,2.1-6.7,5.5,0,5.5,9.5,7,9.5,9.8,0,1.4-1.4,2.2-3,2.3-1.6,0-4-.9-6.7-2.7v4.4c2.6,1.4,4.6,1.9,7.1,1.9,3.9,0,6.7-2.4,6.7-6,0-2.1-1.2-3.5-4.6-5.7-3.6-2.1-4.9-3.2-4.9-4.1,0-1.1,1-1.9,2.7-1.9,1.5,0,3.6.6,5.9,2.1v-3.9h0Z"/>
  <polygon points="210.8 150.6 206.3 150.6 201 162 195.5 150.6 191 150.6 198.9 166.6 191.9 181.4 196.4 181.4 210.8 150.6"/>
  <path d="m232.5,140h-4.5v30c0,4.8-.4,7.2-5.1,7.2h-1.1l.8,4.1c.5,0,.8.1,1.4.1,6.2,0,8.5-4.3,8.5-10.1v-31.3h0Z"/>
  <path class="cls-2" d="m256.5,170.9v-20.4h-4v14.6c-1.3,1.9-3,2.9-4.9,2.9-2.8,0-4.2-1.6-4.2-4.5v-12.9h-4v12.7c0,5.2,2.9,8.1,7,8.1,2,0,4.4-1.2,6-3v2.6h4.1v-.1Z"/>
  <path d="m287.4,150.6h-4v20.4h4v-14.6c1.9-2.1,3.3-2.9,5.1-2.9,2.4,0,4,1.9,4,4.9v12.6h4v-12.6c0-5.6-3.1-8.2-6.9-8.2-2.3,0-4.5,1.1-6.1,3.1h-.1v-2.7h0Z"/>
  <path class="cls-2" d="m365.9,167.3c-.9.7-1.7,1.1-2.1,1.1-.5,0-.8-.3-.8-1v-10.5c0-4.6-3.3-6.7-7.4-6.7-2.9,0-5.2.9-6.8,2.8v4.4c2-2.3,4.2-3.4,6.4-3.4,2.5,0,3.7,1,3.7,3.6v1.1l-3.6,1.3c-3.3,1.2-6.9,2.4-6.9,6.4,0,2.6,2,5,5,5,1.9,0,3.7-.7,5.5-2.1.4,1.5,1.3,2.1,3.1,2.1,1.3,0,2-.4,3.9-1.6v-2.5h0Zm-6.9-.5c-1.1,1-2.3,1.7-3.5,1.7-1.7,0-2.9-1.2-2.9-2.9,0-2.4,3-3.6,6.4-4.8v6h0Z"/>
  <path d="m369.9,150.6v20.4h4v-10.7c0-3.5,2.2-6.3,4.9-6.3,1,0,2.5.8,3.8,2l2.1-3.5c-1.7-1.6-3.2-2.4-4.9-2.4-1.9,0-3.9,1.5-5.9,5.1h-.1v-4.7h-3.9v.1Z"/>
</svg>